<svg version="1" xmlns="http://www.w3.org/2000/svg" width="933.333" height="933.333" viewBox="0 0 700.000000 700.000000"><path d="M334.8 217.8c-8.4 4.2-12.9 14.2-10.7 23.9.7 3.3.7 3.3-3.1 3.3-6.9 0-13 5.9-13 12.7 0 3-.3 3.3-3 3.3-3.9 0-9 2.1-11.2 4.7-2.1 2.3-2.9 8.1-1.6 10.6 1.3 2.5.7 2.9-4.9 3.3-2.6.2-7.1 1.6-10 2.9-5.2 2.6-11.3 8.4-11.3 10.9 0 3.5 12.3 12.5 17.3 12.6 2.1 0 2.2 1.4.1 4.6-1 1.5-1.7 4.6-1.7 8.2-.1 13.1 9.2 21.1 24.3 20.8 4.5-.1 5.5-.4 5.5-1.9 0-1-1.5-2.5-3.5-3.5-3.8-1.9-5.6-5.5-4.7-9.4.8-3.1 4.2-4.7 9.2-4.3 11.9.8 11.8 19.5-.3 27.8-13.7 9.6-40.8 9.9-62.2.7-13.7-5.7-29.5-18.4-37.5-30l-2.8-4 2.1-2.3c6.4-6.8 6-19.6-.7-26.1-7.4-7.1-23.4-4.6-28.2 4.4-4.6 8.6-.3 21.5 8.2 25.1 3 1.2 3 1.2 2.8 8.8-.3 14.4-4.9 25.9-13.8 34.9-14.6 14.7-41.2 17.4-55.1 5.5-2.1-1.8-4.3-4.6-4.8-6.3-.9-2.6-.8-3.4 1.1-5.5 4.7-5.2 10.7-3.7 10.7 2.8 0 5.2 1.1 6.1 5.2 4.1 13.9-6.6 10.6-31.6-4.5-34.1-3.3-.5-3.4-.6-2.7-4.2.8-4.4-.2-9.2-2.5-12.7-1.6-2.4-2.1-2.6-6.5-2.1-10 1.2-17.5 7.7-19.9 17.2-1.2 5-2 5.5-3.8 2.5-3.7-5.8-16.9-7.1-22.9-2.2-1.2 1-2.6 2.8-3.3 3.9-1 2.1-1.3 2.1-4.6.7-5.3-2.2-10.8-1.8-13.8 1-2.8 2.6-4.2 6.5-3.4 9.5.4 1.7.1 1.8-2.7 1-4.3-1.3-14.6-1.2-19.7.1-8.9 2.4-19.9 9.6-18.3 12.1.4.7 2.4.8 5.3.4 4-.5 5.6-.1 12.6 3.4 9.6 4.7 19 7.7 26.5 8.6 9 1 19.9 4.5 20.5 6.6 1.8 5.7 10.7 8.6 16.7 5.5 2.6-1.4 3.4-1.2 12 2.9 5.1 2.4 14 5.7 19.7 7.4 11.7 3.5 16 5.6 27.4 13.9 8.7 6.3 27.2 24.2 25.9 25.1-2.1 1.5-4.2 5.8-4.2 8.6 0 7.5 6.7 12.2 12.8 9.1 2.3-1.2 3.2-1.3 4-.3 1.7 2.1 7.4 13.9 9.9 20.6l2.4 6.4-2.1 1.9c-3.4 3.2-4.2 6.4-2.5 10.4 1.7 4.2 5.1 5.7 9.7 4.3 4.3-1.3 19-4.5 24.8-5.4 2.4-.4 4.7-.8 5-1 .3-.1 2.8-.6 5.5-.9 2.8-.4 9.1-1.3 14-2.1 9.9-1.5 14.3-2.1 22.5-3 3-.3 6.6-.8 8-1 1.4-.2 6.3-.7 11-1.1 4.7-.3 10.1-.7 12-.9 32.3-3 97.9-2.5 121.5.9 1.7.3 5.7.7 9 1.1 10.3 1.1 23.3 3.4 41.2 7.1 9.5 2 18.3 3.4 19.6 3 3.1-.7 6.8-7.4 6.1-11.2-.5-3.1-4.6-7.4-7.1-7.4-2.4 0-.9-6.1 4-16l4.2-8.5h5.5c6.7 0 9.4-1.5 10.9-5.6 1.5-4.4 1.4-5.9-.9-10.1l-1.9-3.6 10-9.6c15.7-15.1 35.6-29 55.4-38.5 12.6-6.1 17-7.4 20.3-5.8 5 2.5 13.3-.1 15.4-4.8.8-1.8 1.9-2.5 4-2.5 1.6 0 3.8-.4 4.8-1 1-.5 3.6-1.3 5.7-1.6 4.2-.6 14.2-3.5 21.3-6.1 2.5-.9 8.6-3 13.5-4.6 12.6-4.1 13.5-4.5 14.2-6.2.9-2.5-5-7-11.8-9-5.2-1.6-6.8-1.7-11.8-.7-3.1.7-7.9 1.2-10.7 1.3-2.7.1-6 .4-7.4.8-2.3.6-2.6.3-4-3.8-2.8-8.5-12.5-11.7-18.4-6.2l-2.3 2.1-1.1-3.9c-.7-2.3-2.9-5.4-5.3-7.6-4-3.6-4.4-3.7-10-3.3-4.4.3-6.5 1-8.4 2.8-2.9 2.7-2.6 2.9-4.9-3.2-2.1-5.6-8.1-11.4-12.9-12.3-4.3-.8-10 1.5-12.3 5-1.9 2.9-2.4 10.5-1.2 16.2.7 3.3.7 3.3-3.2 3.3-4.8 0-10.3 4.4-12 9.6-2.6 7.7 6 25.1 9.5 19.4.4-.6 1.5-.8 2.6-.5 1.4.5 2.3-.2 3.6-2.9 2.8-6.1 6.1-3.9 4.2 2.8-4.6 16.6-32.4 19.9-52.6 6.3-9.9-6.7-16-18.9-16.8-33.8l-.3-7.7 3.9-1.8c8-3.5 11.3-11.3 8.9-20.4-3.2-12-18.8-17.6-29.3-10.6-8.3 5.6-9 19-1.4 27.3l2 2.3-2.9 4.2c-4.5 6.5-19.2 21-26 25.6-9.1 6.1-18.6 10-28.9 12-6 1.2-22 .5-28.5-1.2-8.7-2.2-18-7-20.9-10.7-3.1-3.9-5-9.4-5.1-14.2 0-7.4 8.8-12.4 14.3-8.2 2.7 2 4.5 8.2 4.1 13.9-.5 5.9.4 6.7 5.8 5.3 5.5-1.4 11.3-7.1 12.8-12.6 1.4-5.4.8-13.2-1.4-16.3-.9-1.2-1.6-2.5-1.6-2.8 0-.3 2.1-.6 4.6-.8 7.2-.4 14.9-5 17.8-10.7 1.3-2.5 1.3-3.2 0-5.6-3.7-7.2-14.2-13.3-23-13.2H397v-3.2c0-5.7-10.1-12.2-15.5-10.2-1.2.5-1.3-.1-.9-3.6.3-2.3.1-5.4-.5-6.9-1.3-3.4-6.6-6.8-10.6-6.8h-3v-7.8c-.1-8.3-1.5-12.3-6.4-17.5-6.5-7.1-16-8.5-25.3-3.9zm16.5 2.6c6.6 2.8 11.7 11.3 11.7 19.5 0 3.8-4.5 14.1-6.1 14.1-1.1 0-1.2 2.7-.1 3.4.5.3 3-1.1 5.7-3 2.7-1.8 5.9-3.4 7.2-3.4 3.1 0 7.3 4.2 7.3 7.2 0 2.4-2.9 8.9-5.5 12.4-1.3 1.8-1.4 2.3-.1 3.3 1.1 1 1.8.8 3.3-.7 3-3.2 8.3-5.4 11.2-4.7 3.6.9 7.1 4.4 7.1 7.1 0 2-6.4 9.4-8.2 9.4-.4 0-.8.9-.8 2 0 2.7 1.6 2.5 6.1-.6 5.7-4 10.4-5.2 15.5-4.3 5.3 1 15 7 15.9 9.8.9 2.9-2 6.7-6.8 9-4.9 2.3-8.4 2.7-15 1.6-6-.9-8.7.7-6.1 3.6.9 1 2.4 2.1 3.4 2.4 3.1 1 5.9 7.5 5.6 13.2-.3 5.6-2.2 9.4-5.9 11.7-4.2 2.8-4.8 2.4-5.2-2.9-.8-11.6-5.9-16.5-15.7-15.2-6.3.8-10 5.1-10.6 12.1-.2 3 0 6.8.6 8.5.6 1.8.7 3.1.1 3.3-.5.2-1 2.9-1.2 6.1-.2 3.1-.7 5.6-1.2 5.5-.6-.2-.9-5.1-.8-11.6.2-6.1-.1-11.2-.5-11.2-.8 0-1.3 5.2-1.5 15.2-.1 2.9-.4 3.5-1.4 2.6-1-.8-1.2-4.3-.9-14.4.2-7.4 0-13.4-.5-13.4-.8 0-1.1 5.2-1.1 17.8 0 3.3-.3 4.1-1.2 3.2-.7-.7-1.1-6.5-1-17.1 0-17.1-1.3-20.7-1.8-4.6-.2 5.3-.6 9.7-1 9.7-.5 0-.8-.8-.9-1.8 0-.9-.2-2.4-.3-3.2-.2-.8-.6-3.7-.9-6.4-1.1-9-4.7-8.6-4.7.5 0 13.5-5.6 26.6-15.1 35.3-8.2 7.7-20.5 13.6-33 16.1-1.3.3-3.5.8-4.9 1.1-4.6 1-26.4 1.2-32.5.3-12.5-1.9-15.3-2.9-15.8-5.5-.3-1.5 0-2.4.9-2.4 2.2 0 2.7-2.1.6-2.7-1.3-.3-2.3-1.8-3-4.4-.5-2.1-.9-3.9-.7-3.9.1 0 2.9 1.2 6.1 2.6 14.1 6.2 37.2 8.9 50.9 5.9 16-3.5 26.2-13.1 27-25.4.9-12.6-10.1-20.7-21-15.5-5 2.4-7.6 11.1-4.4 15 .6.8.9 1.7.5 2.1-.9.9-7.6-1.5-10-3.6-4.5-3.9-6.1-12-3.6-18 1.4-3.4 7.4-7.5 12.8-8.6 3-.6 4.3-2.7 2.3-3.9-.5-.4-3.8.1-7.3.9-6.7 1.5-10 1.3-15.2-.9-3.3-1.5-8.6-6.1-8.6-7.6 0-.4 1.4-2 3.1-3.4 9.2-7.8 23.8-8 31.5-.5 3.1 3 5.4 3.2 5.4.4 0-1.8-6.5-7.3-9.6-8.1-3-.8-6.5-7.3-5.6-10.6.6-2.4 5.8-5.8 9-5.8 2.9 0 5.9 1.5 9.4 4.7 2.5 2.4 4.8 2.4 4.8.1 0-.6-1.6-2.8-3.5-4.9-4.5-5-4.7-8.9-.6-13 5.9-5.9 14.7-2.5 17 6.6 1.1 4.5 3.3 6 4.5 3 .7-2-1-6.6-5-13.3-4.4-7.2-4.8-13.6-1.4-20.3 3.7-7.2 13.7-10.7 21.3-7.5zm138.8 65c-.9 1.1-.4 1.5 2.7 2 5.3.8 8.4 4.3 8.5 9.7.1 5.4-3.5 8.9-9.3 8.9-4 0-8-2.9-8-5.7 0-.7-.7-1.3-1.5-1.3-3.6 0 .1 7.1 4.9 9.4 5.4 2.5 9.1 2.1 13.2-1.7 3.1-2.8 3.7-4.1 4.2-8.6.4-4.4.1-5.8-1.9-8.4-1.7-2.3-1.8-2.8-.4-1.7 4.3 3.5 6 14.4 2.9 18.8-3.6 5.2-13.8 7.1-20.1 3.9-5.1-2.7-7.6-7-7.5-13.2 0-6.2 2.2-10.2 6.7-12.1 4.2-1.8 7.1-1.8 5.6 0zm-281 4.4c3 3.3 4.6 10.3 3.5 14.8-2.1 8.2-14.2 11.9-22.3 6.8-7.2-4.5-7.3-19.6-.2-23.1 4.3-2.1 5.3-2.3 10.8-1.9 4.6.2 5.9.8 8.2 3.4zm371.1 15.9c3.8 3.7 5.6 8 6.4 15.4.3 3.5.8 6.7 1.1 7.1.8 1.4 3.3.8 3.4-.7.8-9.5 8.5-14.9 16.2-11.4 1.4.6 3.4 2.9 4.7 5.1 2 3.7 2.1 4 .6 5.7-2.1 2.3-3.1 8.3-1.8 10.6.8 1.6-.3 2.4-7.9 6.1-10.3 5-25.1 13.6-35.9 20.7-9.4 6.2-21.3 14.9-22.1 16-.4.5-1.4.7-2.4.5-2.9-.5 8.6-11.2 13.7-12.7 2.5-.8 6.1-3.3 9.5-6.7 5.5-5.4 17-12.7 31.3-19.9 4.1-2.1 7-4 6.3-4.2-1.2-.4-17 7.7-26 13.4-2.9 1.8-5.4 3.3-5.7 3.3-.3 0-.3-2.2 0-4.9.6-6.6-2.4-10.4-8.1-10.4-3.2 0-4.4.6-7.1 3.7l-3.2 3.7-1.5-3.8c-2.1-5.3-1.3-9.3 2.3-12.6 4.8-4.3 11.1-3.6 17 1.9 1.6 1.5 3 2 3.9 1.5 2-1.3.5-4.4-3-6.5-7.2-4.3-8.7-19.8-2.2-23.5 2.7-1.5 7.4-.4 10.5 2.6zm-455.1 7.9c1.4 3.5.9 8.9-1.1 12.9-2.6 5.1-2 7.4 1.5 5.1 3.4-2.2 6.6-2 10.6.7 6 4 7.6 14.6 3.3 21.2l-1.9 2.8-.6-3.3c-1-4.8-2.8-7.6-5.6-8.9-5.9-2.7-10.4-.5-13.9 6.7-2.7 5.4-2.7 5.7-1.2 9.9 1.3 3.6 1.3 4.1.2 3.2-.8-.7-1.7-1-1.9-.7-.3.2 3.2 3.4 7.8 7 10 8 18.7 15.7 18.7 16.7 0 2-6.4-.6-10.2-4.1-9.1-8.6-35.3-26.6-36.6-25.3-.6.6-1.3.1 7.3 5.5 9.4 6 24.4 17.1 27.5 20.4l2.5 2.8-3-.8c-4.2-1-6.6-2.2-10-5.4-1.6-1.5-7.4-5.9-12.7-9.8-5.4-3.8-10.9-8.3-12.3-10-1.4-1.7-4-3.4-5.8-3.7-1.7-.4-5.1-1.9-7.5-3.2-2.4-1.4-4.5-2.3-4.8-2-.3.3.8 1.3 2.5 2.3 3.5 2 3.8 2.9 1.6 3.8-1 .4-5.5-2.3-12.2-7.4-5.8-4.4-11.2-8-11.8-8-1.3 0-2.5-2.2-2.5-4.6 0-2.3 3.8-5.4 6.7-5.4 4 0 10.5 4.3 13.3 8.9 3 4.9 6.6 5.8 5.5 1.3-.3-1.5-1.5-3.6-2.6-4.8-2.4-2.6-2.4-5.9.1-8.4s6.1-3.4 11.2-2.7c4.9.7 7.8 3.2 8.7 7.8.8 3.8 4.1 5.4 4.1 2 0-1.1.8-2.8 1.9-3.8 1-1 2.6-4.1 3.5-7 2.7-8.2 6.3-11.8 13.1-13.3 4.3-.9 5.8-.6 6.6 1.6zm367.3 2.4c2.1 0 .5 9.3-3.2 19-3.4 8.6-3.7 9.2-4 6-.2-2 .9-6.9 2.3-11s2.8-8.3 3-9.3c.2-.9.7-2.2 1-2.7.3-.6.1-1-.4-1-.6 0-1.1.5-1.1 1.1 0 .8-.5.8-1.5-.1-2.9-2.4-5 1.8-8 16.2-.7 3.6-10.5 14-17.8 19-14.1 9.6-31.1 14.9-49.2 15.4-6 .2-12.3 0-13.8-.3-2.5-.5-2.7-.9-2.2-3.3.3-1.6.2-3.1-.4-3.5-.7-.4-1.1.7-1.1 2.9 0 2-.4 3.6-1 3.6-1.1 0-1.3-4.3-.4-7.8.5-1.9 1.1-2.2 3.3-1.7 9.9 2.2 29.4.6 38.7-3 13.8-5.5 28.2-15.7 37.1-26.3 2.6-3.1 5-5.9 5.3-6.2.3-.3 1.8-2.2 3.4-4.3 2.5-3.4 3.2-3.8 5.9-3.3 1.6.3 3.5.6 4.1.6zm-285 2.8c2.6 5 6.3 27.2 4.5 27.2-.4 0-1-1.9-1.4-4.3-1.1-6.6-5.5-19.7-6.6-19.7-.6 0-.7.5-.3 1.1.7 1.2 5.4 17.8 5.4 19.2 0 .5-.4.6-.8.3-1.5-.9-2.8.9-5.2 7.4-3 8.6-6.1 13.3-13.1 20.2-10.1 9.8-24.9 16.5-38.4 17.3l-7 .3-7.8-7.3c-7-6.7-7.4-7.3-4-5.8 4.9 2.1 20.1 2.6 27.3.9 22.8-5.3 38-25.6 38-50.5v-6.9l3.8-1c2-.5 3.8-1 3.9-1.1.1-.1.9 1.2 1.7 2.7zm279.7 7.3c-.5 1.3-1 1.9-1 1.2-.1-1.5 1-4.5 1.5-4 .3.2 0 1.5-.5 2.8zM215 332.3c.6 2.9 1.3 8.6 1.6 12.7.5 6.9.4 7.4-1.1 5.9-1.2-1.1-1.7-3.9-2-10-.2-4.6-.9-10-1.5-11.9-1.3-4.4-1.3-4.5.4-3.1.8.7 2 3.6 2.6 6.4zm418.2-4.5c4 4 2.6 13.2-2.3 15.8-1.6.8-2.9 1.2-2.9 1 0-.3-2.5.4-5.6 1.4-3.4 1.2-6.2 1.6-7.1 1.2-1-.6 1-2 7.1-4.7 4.7-2.1 8.6-4.2 8.6-4.6 0-.5-3.7.8-8.2 2.7-4.6 2-10.8 4.5-13.8 5.6-3 1.1-6.2 2.6-7.1 3.4-.9.8-4 2.7-7 4.3-14.2 7.4-29.4 17.1-26.8 17.1.8 0 3.3-1.3 5.5-3 2.1-1.6 4.3-3 4.7-3 .5 0 2.1-.8 3.5-1.9 6.1-4.3 18.2-10.2 17.6-8.6-.4.9-3.6 3.1-7.3 5-9.8 5.1-16.7 9.1-25.8 15-6.7 4.4-9.2 5.4-13.9 6-3.4.3-5.5.2-4.9-.3 1.6-1.4 12.9-9.8 14.4-10.7 1.1-.6 1.3-.4.8.8-.5 1.2-.1 1.7 1.3 1.7 2.2 0 2.8-2.6.8-3.2-1.1-.4 7.9-6.7 16.2-11.4 1.9-1 4.9-2.9 6.7-4 5.3-3.5 26.3-13.5 27.1-13 1.1.7 7.2-3.1 7.2-4.4 0-1.6-3-2.4-4.3-1.1-1.9 1.9-3.7 1.3-3.3-1.2.3-1.2.5-2.5.5-3 .1-.4 1.3-.7 2.7-.7 1.4 0 4-1.2 5.7-2.6 3.3-2.8 6.8-2.7 9.9.4zm-137.1 12.7c.1.5-1.3 4.4-3.2 8.5-4.5 9.5-5.8 7.3-1.7-2.9 1.6-4 2.7-7.8 2.5-8.4-.3-.9-2.5 3.7-4.7 9.7-.8 2.2-1.4 2.6-2.2 1.8-.8-.8-.3-3.3 2.2-9.4 4.3-11.1 4.3-11 5.6-5.3.6 2.7 1.3 5.4 1.5 6zm-277.8-8.3c.7.7 1.3 2 1.4 2.8.1.8.5 4.2.8 7.5.8 6.3 1.2 13.5.9 13.5-.2 0-.9-.7-1.7-1.5-1-.9-1.5-3.8-1.6-8.7-.1-4-.5-9-1-11.1-.9-3.9-.7-4.5 1.2-2.5zm6.8 10.2c0 1.7.2 5.9.3 9.3.1 4.6-.2 6.3-1.1 6.3-.9 0-1.3-1.6-1.4-4.8 0-5-.6-10.7-1.4-15.7l-.5-3 2 2.4c1.1 1.3 2 3.7 2.1 5.5zm450.1-4.7c4.4 1.8 5.2 3.9 1.1 2.9-1.6-.4-4-1-5.4-1.2-1.5-.4-7.3 1-14.8 3.6-6.8 2.2-12.8 3.9-13.4 3.7-.7-.2 1.1-1.2 3.8-2.1 10-3.6 13.5-5.1 13.5-5.8 0-.3-5.1 1.1-11.2 3.2-6.2 2.1-11.5 3.6-11.7 3.4-.2-.1.3-1.6 1-3.3 1.6-3.5 3.8-4.3 13.4-4.7 3.9-.2 8.4-.8 10-1.3 3.5-1.1 8.3-.6 13.7 1.6zM228 342.1c1.7 3 2.6 18.9 1.1 18.9-.6 0-1.3-.6-1.6-1.3-.4-1.4-1.2-19.7-.8-19.7.1 0 .7.9 1.3 2.1zm140.7 7.1c-.2 3.5-.8 6.2-1.3 6-1-.2-1.6-13.1-.7-14.6 1.3-2 2.3 2.7 2 8.6zm-14.1-3c2.9 6.5 15.6 18.7 23.6 22.6 12.4 6 20.2 7.5 38.8 7.5 13.4 0 17.9-.3 23.8-2 5.6-1.5 7.2-1.7 7.2-.6 0 2 3 1.6 3-.5.1-1.2 3.2-3.2 10.3-6.7l10.2-5-5.6 11c-3 6-7.2 14.8-9.2 19.5-1.9 4.7-4.2 8.5-4.9 8.5-.8 0-1.2 1-1 2.4.2 2.4-1.5 5.4-2.7 4.7-1.6-1-28.1-3.4-57.1-5.1-11.3-.7-60.2-.8-68-.1-3 .3-10.8.8-17.3 1.1-6.5.4-12.8.8-14 1-1.2.2-5.8.6-10.1 1s-8.6.8-9.5 1c-2.3.4-9.8 1.4-15.6 2-2.7.4-7.5 1-10.5 1.5s-7.1 1.2-9 1.5c-1.9.3-7.4 1.4-12.1 2.4l-8.7 1.8-4.3-6c-2.4-3.3-8.1-10.7-12.6-16.5l-8.2-10.4 4.9-3.9c5-4 12.5-13.6 15.6-20.2 1.7-3.7 1.8-3.7 3.8-1.8 3.9 3.4 14.1 9.7 20.1 12.3 14.7 6.4 32.6 9.4 51 8.5 14.9-.7 22.2-2.5 35-8.7 11.1-5.3 20.7-13.3 26.6-21.9 1.9-2.8 3.7-5.1 4-5.1.3 0 1.4 1.9 2.5 4.2zm-309.4 1.4C49.1 352 60.8 359.7 67 362c7.7 2.8 5.8.9-3.8-3.7-4.8-2.4-11.2-6.5-14.2-9.3l-5.5-5 4.2 1.5c2.3.7 5.1 1.8 6.1 2.4 1.5.8 2.3.7 3.2-.4.7-.8.9-1.5.5-1.5-.5 0-.6-.3-.2-.6.7-.7 18.7 12.7 18.7 13.8 0 1.5-1.8.7-10.3-4.6-4.8-3-8.7-5.1-8.7-4.6 0 .8 12.8 9.6 15.6 10.7 1.2.4 1.2 3.5 0 5-.1.1-2-.4-4.3-1.2-2.2-.8-8.3-2.1-13.4-2.9-13.5-2.2-18.5-4.2-24.1-9.6-4.8-4.7-6.7-4.8-2.5-.1l2.2 2.5-3.1-2.2c-5-3.5-5.9-4.9-3.5-6.1 2.6-1.4 11.9-2.8 15.5-2.2 1.7.2 4.1 1.8 5.8 3.7zm187.6-2.9c1 1.9 1.7 5.5 2.8 13.5.5 4.4.4 4.8-1.5 4.8-1.2 0-2.1-.3-2.2-.8-.1-.4-.2-3.7-.4-7.3-.1-3.6-.5-7.8-.9-9.3-.7-2.9.8-3.6 2.2-.9zm263.2 9c-2.5 5.4-3.3 6.4-4.1 5.1-.6-1.1 0-3.6 2.2-8.5 2.5-5.6 3.2-6.5 4-5.1.7 1.3.2 3.5-2.1 8.5zm-256.1-2.5c.7 1.8 1.5 5.9 1.8 9.1l.6 5.8-2.6-1.2c-1.5-.7-2.5-1.5-2.3-1.8.3-.6-.8-9.9-1.8-14.9-.4-1.9-.2-2.1 1.4-1.2 1 .5 2.3 2.4 2.9 4.2zm133 .8c-.5 2.2-.9 4.3-.8 4.7.3 2-.2 3.4-1.1 2.8-1.1-.7-1.4-11.8-.3-12.8.3-.4 1.2-.2 1.8.3.9.8 1 2.2.4 5zm252.9-3.7c.9 1 .4 1.6-1.8 2.4-2.3.9-3.2.8-4.1-.3-.9-1.1-.6-1.6 1.2-2.3 3.2-1.3 3.5-1.3 4.7.2zM21 349c0 .5-.2 1-.4 1-.3 0-.8-.5-1.1-1-.3-.6-.1-1 .4-1 .6 0 1.1.4 1.1 1zm478.2 8.8c-2.2 4.6-3.2 5.9-4 4.9-.7-.8-.3-3 1.6-7.4 2.2-5.1 2.9-6 4-4.9 1 1 .7 2.4-1.6 7.4zm-114.8 2.3c-.3 7.8-2.4 7.6-2.4-.2 0-7.1-1.4-7.2-1.6-.1-.2 5.9-.1 5.7-1.8 4.3-1-.9-1.3-2.7-1-6.1.2-2.7-.1-5.2-.6-5.5-.6-.4-1 1.3-1 4.4 0 2.8-.4 5.1-1 5.1-1.1 0-1.4-10.3-.4-11.3.4-.3 2.8.5 5.3 1.8l4.8 2.4-.3 5.2zm228.4-7.8c1.6 1.9.3 8.7-1.7 8.8-5.3.4-7.2-.9-6.3-4.4.3-1.4.1-1.8-.6-1.3-1.6 1-1.5-1.7 0-3.2 1.6-1.6 7.3-1.5 8.6.1zM484 353c0 1.5-17.9 37.2-19.6 39.1-.8.9-1.4 2-1.2 2.5.1.5-1 3.9-2.6 7.5-2.7 6.2-3 6.5-5.8 6.1-3.5-.5-3.6-.1 2.5-13.7 10.6-23.9 16.5-34.7 21.6-39.2 3.8-3.4 5.1-4 5.1-2.3zm147.5.5c-1.6.8-3.7 1.4-4.5 1.4-.8 0 .1-.7 2-1.4 4.6-1.8 6.4-1.7 2.5 0zM505 356.1c0 1.6-4.4 10.9-5.1 10.9-1.9 0-1.8-2.4.3-7.9 1.7-4.5 2.6-5.7 3.6-4.9.6.6 1.2 1.4 1.2 1.9zm-116.8 5.4c-.5 7.4-2.2 7-2.2-.5 0-4.3.3-5.8 1.3-5.5.8.4 1.1 2.3.9 6zm5.3-2.4c-.4 1.1-.8 3.1-.9 4.7-.4 3.7-3.4 4.3-3.1.5.1-1.5.3-4 .3-5.5.2-2.1.6-2.5 2.2-2.1 1.5.4 1.9 1.1 1.5 2.4zm94.5 1.4c3.1 5 12.1 12.7 18.8 16.1l5.8 2.9-7 10.5c-3.9 5.8-8.9 13.5-11.1 17.2-3.3 5.6-4.4 6.6-6 6.1-1.1-.3-2.1-.7-2.3-.8-.5-.4 9.9-18 11.4-19.1.8-.6 1.4-1.7 1.4-2.5s1.5-3.9 3.4-7.1c1.9-3.1 3.2-5.9 2.9-6.2-.7-.7-7.2 9.8-15.6 25-5.1 9.2-5.9 10.1-8.1 9.7l-2.5-.5 6.6-12.7c3.6-6.9 7.6-14.5 8.9-16.8 2.6-4.5 2.8-5.3 1.7-5.3-.5 0-3.7 5.7-7.3 12.6-4 7.8-7.2 12.9-8.3 13.2-1.3.3-1.7 1.1-1.3 2.7.8 3-1.9 6.5-4.4 5.8-1.1-.3-2-.7-2-1 0-1.6 17.4-35.9 18.6-36.6.8-.5 1.2-1.2.9-1.8-.9-1.3-3.5-1.1-3.5.3 0 .7-3.8 9.1-8.5 18.6-4.7 9.5-8.5 17.7-8.5 18.2 0 1-4.3 1.4-5.2.5-.3-.3.9-3.6 2.7-7.3 1.8-3.7 4.3-9 5.5-11.7 1.2-2.8 4.7-9.9 7.7-15.9 3-5.9 5.2-11.1 4.9-11.4-.4-.3-.8-.3-1-.1-.4.4-11 22.4-17.7 36.6-3.6 7.8-4.7 9.3-6.6 9.3-1.3 0-2.3-.5-2.3-1 0-1.8 5.3-13 6.2-13 .4 0 .8-.8.8-1.8 0-2.3 16.9-36.2 18-36.2.5 0 1.8 1.6 3 3.5zm30.8 4.5c2.3 0 2.2 2.2-.2 5.1-4.1 4.8-3 5.9 1.2 1.2l3.7-4.2 5.5 1.4c3 .8 6.3 1.5 7.4 1.5 1.6 0 1.1 1-2.8 4.9-2.8 2.9-5.6 4.8-6.6 4.6-7.3-1.4-23-8.1-24.4-10.4-.3-.5.3-3.4 1.5-6.4l2.1-5.4 5.8 3.8c3.1 2.2 6.2 3.9 6.8 3.9zm80.2-5.5v2.2c0 .5-1.1.8-2.4.9-1.4.1-5.9 1.8-10.1 3.9-8.3 4-11.3 4.2-4.3.2 16.7-9.6 16.8-9.6 16.8-7.2zm-513.6 3.6c2.8 2.2 3.3 4.8 1.4 6.7-1.6 1.6-5 1.5-6.7-.1-1.1-1-1.3-.7-.8 1.6.4 2.5.3 2.7-.9 1.5-2.1-2.1-2.5-7.3-.8-9.7 1.9-2.7 4.4-2.7 7.8 0zM100 368c.3.3 3 2.2 6 4.3 7.3 5.1 12.7 9.7 11.2 9.7-2.1 0-11-4.7-15.1-7.9-2.1-1.7-4.5-3.1-5.2-3.1-.9.1-.7.6.5 1.5 1.1.8 1.5 1.5 1 1.5-2 0-3-2.1-2.6-5.5.4-3.5 1.2-3.6 4.2-.5zm447.5 4c-1 1.1-2.4 1.6-3.7 1.2-1.6-.4-1.9-.1-1.6 1.4.2 1.1-.6 2.8-1.9 4.1-2.1 2-3.1 2.2-8.6 1.4-.5 0 1.4-2.3 4.3-5 4.3-4.1 5.7-4.9 9.2-4.9 3.8-.1 3.9 0 2.3 1.8zm26.9 1.2c-.3.4-1.2.8-2 .8s-1.3-.4-1-.8c.3-.5 1.2-.9 2-.9s1.3.4 1 .9zm-57.7 14.2c-2.3 2.8-4.4 5.3-4.7 5.6-1.2 1.2-8.9 11.9-12 16.7-2.5 4-3.8 5.2-5.6 5.1-2.7-.3-2.7-.2 5.4-13.3 8.3-13.3 12.2-18.5 13.9-18.5.9 0 1.3-.6 1-1.4-.4-1.1.1-1.2 2.8-.3l3.4 1-4.2 5.1zm8.3-3.7c0 .5-1 2-2.3 3.4-3.4 4.1-8 10-9.7 12.4-.8 1.3-3.7 5.5-6.3 9.4-4.5 6.5-7.7 9-7.7 5.8.1-2.3 2.7-4.8 4.4-4.1 1.3.5 1.6.1 1.4-2.3-.2-2.9 3-7.8 13.5-20.6 3.4-4.2 6.7-6.1 6.7-4zm-331.6 4.5c3.3 3.8 3.4 4.2 1.8 5.4-1.5 1.2-2.2.8-5.5-2.7-3-3.3-3.5-4.4-2.6-5.5 1.7-2.1 2.4-1.8 6.3 2.8zm340.4-3.3c.1.1-3.4 4.3-7.9 9.3-4.5 5.1-10.5 12.3-13.3 16-2.9 3.9-5.8 6.8-6.8 6.8s-1.8-.4-1.8-.8c0-1.2 10.9-16.8 17.6-25.2 5.2-6.5 6-7 8.8-6.6 1.7.2 3.2.5 3.4.5zm22.4 1.1c-4.1 2.5-5.4 2.5-2.3 0 1.3-1.1 3.1-2 4-2 .9 0 .3.8-1.7 2zm-15.7 1.7c-8.4 7.2-12.1 11-23.9 24.5-6 7-9.8 8.4-5 2 5-6.8 13.5-17.1 19.1-23.2 4.9-5.2 6-6 9.2-6l3.6.1-3 2.6zm2.5 2.8c-4 3-7.8 5.5-8.4 5.5-2.3-.1 10.9-10.9 13.3-11 2 0 1 1.1-4.9 5.5zm-357.3-2.1c.4.7 2.5 3.3 4.5 5.7 8.1 9.5 17.6 22.4 17.2 23.1-1.4 2.2-5.1.5-7.9-3.5-1.6-2.3-3.9-5.3-5.1-6.7-1.2-1.4-5.1-6-8.8-10.2-5.9-6.8-6.4-7.8-4.9-8.7 2.5-1.4 4.1-1.3 5 .3zm-.1 10.8c14.2 16.7 15.9 18.9 14.3 19.9-2.2 1.4-2.6 1.1-5.6-2.8-4.6-6-17.6-20.7-20.1-22.7-1.8-1.5-2.1-2.1-1-2.7 2.9-1.9 4.8-.6 12.4 8.3zm-6.4 1.9c4.8 5 8.6 9.4 8.4 9.8-.3.4 1.3 2.4 3.4 4.5 3.5 3.5 4.3 5.6 2.1 5.6-.5 0-3.5-3.3-6.8-7.3-3.3-3.9-9.3-10.5-13.4-14.5-6.5-6.4-7.1-7.2-4.9-7.2 1.8 0 4.8 2.4 11.2 9.1zm-27.6-5.3c10 7.3 31.6 29.4 27 27.6-.9-.3-1.6-.9-1.6-1.3 0-2.1-21.1-21.5-28.3-25.9-2-1.3-3.7-2.6-3.7-2.8 0-1.2 3.2-.1 6.6 2.4zm12.3 3.7c8.1 6.9 10.1 8.9 17.4 17.6 4.3 5.1 4.5 5.7 2.8 6.2-1.5.4-3-.7-5.8-4.1-4.9-6.1-14.2-15.2-21.5-21.3-5.4-4.5-5.7-4.9-3.2-4.9 1.8 0 5 2.1 10.3 6.5zm2.7-4.4c1 1.1 1.9 2.8 1.9 3.7 0 1 .7 1.6 1.6 1.4 1.6-.2 9.3 7.3 16.2 15.9 4.1 5.1 4.4 5.9 2.3 5.9-.8 0-4.1-3.3-7.4-7.3-6-7.2-12.7-13.9-19.2-19l-3.5-2.7h3.1c1.9 0 3.8.8 5 2.1zm40 10.2c5.6 7.4 7.2 10.2 6.2 10.8-.7.5-1.6.9-2 .9-.5 0-16.8-20.6-16.8-21.3 0-.1 1.1-.3 2.5-.3 2.1-.2 3.8 1.6 10.1 9.9zm325.4-5.5c0 1.5-2.8 4.7-3.5 4-.8-.8 1.3-4.8 2.5-4.8.6 0 1 .4 1 .8zm-125 7.6c1.9.2 7.3.7 12 1.1 4.7.3 9.6.8 11 1 1.4.2 5.4.6 9 1 3.6.3 7.4.7 8.5 1 1.1.2 3.5.4 5.3.4 1.7.1 3.2.5 3.2.9s-3.6.4-8.1-.2c-6.1-.7-8.3-.6-8.8.3-.8 1.2-2.1 1.1-18.1-.4-18.1-1.8-67.3-2.4-84.5-1.1-4.4.4-10.9.9-14.5 1.1-11.7.9-24.4 2.2-38.2 3.9-5.4.7-9.8.9-9.8.5 0-.7-5.2-.5-13.5.7-2.2.3-5.6.7-7.5 1-1.9.3-6 .9-9 1.4-11.4 2-14 2.2-14 1.1 0-.6-.7-1.1-1.5-1.1s-1.5.6-1.5 1.4c0 .9-2.5 1.9-7.1 3-8.8 2-9 2-8.2 0 .5-1.3 0-1.4-3.3-.9-7.3 1.3-19.6 4.6-25.9 7-4.7 1.7-6.2 2-5.9 1 .8-2.1 17.2-7.4 27.9-9.1 2.2-.3 4.3-.8 4.6-1 .3-.2 2.1-.6 4-.9 1.9-.3 5.4-1.1 7.9-1.6 2.5-.6 5.6-1.3 7-1.5 1.4-.3 3.6-.7 5-1 1.4-.2 4.3-.7 6.5-1 2.2-.3 5.7-.9 7.8-1.4 3.4-.7 3.7-.6 3.2 1-.3 1 0 2 .9 2.3 1.8.7 2.8-1.7 1.3-3.2-.8-.8-.7-1.1.4-1.1.7 0 6.4-.7 12.4-1.4 10.2-1.4 17.1-2.1 27-3.1 2.2-.2 9.6-.7 16.5-1.1 6.9-.3 12.7-.8 12.9-1 .6-.5 80.9.4 85.1 1zm63.4 7.7c.3.3-2.6.1-6.4-.4-3.9-.6-7-1.3-7-1.6 0-.8 12.5 1.1 13.4 2zm-54.4-.7c2.5.3 7.4.8 11 1.1 15.2 1.3 23.6 2.3 31 3.5 3 .5 8 1.2 11 1.5 3 .4 5.7.8 6 1 .3.2 2.6.6 5 1 2.5.3 5.9 1 7.5 1.5 1.7.5 4.6 1.1 6.5 1.4 1.9.3 4.9 1 6.5 1.5l3 .9-2.7.2c-1.6.2-3.4.3-4 .3-2.4.2-11.2-1.4-21.8-3.8-16.3-3.8-27.8-5.7-43-7.1-3.6-.3-7.8-.7-9.5-.9-12.4-1.5-51.4-2.3-79-1.6-12.3.3-14.4 0-5-.9 7.6-.7 70.2-.3 77.5.4zm-85 .6c0 .5-.4 1-1 1-.5 0-1-.5-1-1 0-.6.5-1 1-1 .6 0 1 .4 1 1zm-4 .6c-3.4.7-10.8.8-10.3.1.2-.4 3-.6 6.1-.6 3.1.1 5 .3 4.2.5zm147.7 0c-.3.3-1.2.4-1.9.1-.8-.3-.5-.6.6-.6 1.1-.1 1.7.2 1.3.5zm-164.9 1.1c-1 .2-2.6.2-3.5 0-1-.3-.2-.5 1.7-.5s2.7.2 1.8.5zm170.9-.1c-.3.3-1.2.4-1.9.1-.8-.3-.5-.6.6-.6 1.1-.1 1.7.2 1.3.5zm6.3 1c0 .2-.9.4-2 .4s-2-.4-2-.9.9-.7 2-.4c1.1.3 2 .7 2 .9zm-187.2.1c-1 .2-2.6.2-3.5 0-1-.3-.2-.5 1.7-.5s2.7.2 1.8.5zm101.6.1c.3.5-.1.9-.9.9s-1.5-.4-1.5-.9c0-.4.4-.8.9-.8.6 0 1.2.4 1.5.8zm14.1.7c22 1.3 36.2 3.3 57.5 8.1 1.4.3 6.2 1.3 10.8 2.2 4.5.9 8.2 2 8.2 2.4 0 .9-.4.8-12-1.7-4.1-.9-9.1-1.8-11-2.1-1.9-.3-4.1-.7-4.9-1-.8-.2-3-.7-5-1-2-.2-4.5-.7-5.7-.9-6.2-1.4-30.5-4.4-40.7-5.1-5.3-.4-9.7-1.1-9.7-1.5 0-.5.6-.7 1.3-.4.6.2 5.7.6 11.2 1zm84 1.6c3.3.7 6.5 1.7 7 2.2.7.7.5.8-.5.5-.9-.3-5-1.3-9.3-2.3-4.2-.9-7.7-1.9-7.7-2.2 0-.3 1-.3 2.3 0 1.2.3 4.9 1.1 8.2 1.8zm-13.8.5c-.3.3-1.2.4-1.9.1-.8-.3-.5-.6.6-.6 1.1-.1 1.7.2 1.3.5zm-148.7 2c0 2.3 2.1 2.7 2.7.4l.6-2.2 28.6.6c15.7.3 30.4.8 32.5 1 2.2.3 6.9.7 10.5 1 13.2 1.2 18.1 1.8 25.9 3.1 3.5.6 4.2 1 3.7 2.3-.4 1-1.2 3-1.7 4.5-.6 1.6-2.2 4-3.5 5.3-2 2-2.4 3.3-2.1 6.2.3 2 .1 4.9-.3 6.4-.4 1.6-.4 2.8.1 2.8.4 0 1-.9 1.3-2.1.8-3 2.5-1.5 1.9 1.7-.5 2.6-.6 2.6-7.1 2-3.6-.3-6.9-.6-7.3-.6-.5 0-.8-1.6-.8-3.6 0-4.1 2-4.3 3.1-.3.6 2 .7 1.7.9-1.6.2-2.9.4-3.3.7-1.5.3 1.4.8 2.9 1.2 3.3 1.3 1.3 1-13.8-.3-15.4-2-2.7-4.8-3.7-7.9-2.8-4.4 1.2-5.8 3.7-5.2 8.6.2 2.4 0 5.4-.5 6.8-.6 1.6-.6 2.5 0 2.5.5 0 1.3-1.2 1.6-2.6.8-3.2 2.3-1.3 1.6 2.2-.2 1.4 0 2.4.7 2.4s1.1-.6 1-1.3c-.3-2.2.1-3.7.9-3.7 1.2 0 .9 6-.3 6.1-2.3.3-13.1-.3-14.8-.7-1.3-.4-1.7-1.4-1.5-3.5.4-3.5 2-3.9 3-.7.7 2.5 1.1 1.7.9-2.2 0-2.4 0-2.4 1.3.5 1.4 2.9 1.4 2.8 1.4-3.5 0-8.5-.4-9.7-3.9-11.5-2.5-1.3-3.3-1.4-6.3-.1-1.9.8-3.6 2.2-3.9 3.3-.8 3-.4 14.3.5 13.7.4-.3.8-1.4.8-2.5s.4-1.8.8-1.5c.5.3.8 1.9.7 3.6-.1 1.6.2 3 .7 3 .4 0 .8-1.1.8-2.5s.4-2.5.9-2.5.9 1.5.9 3.4c0 3-.3 3.4-2.1 3-1.2-.2-10.4-.5-20.4-.6l-18.3-.3v-3.6c0-2.4.5-3.9 1.5-4.3 1.1-.4 1.5.2 1.5 2.5 0 1.9.4 2.8 1.1 2.3.6-.3.9-1.4.6-2.4-.5-1.9.8-4.8 1.8-3.8.3.3.8 1.8 1.1 3.4.8 4.3 1.4 4.2 1.4-.3 0-2.8.5-4.3 1.5-4.7.9-.3 1.5-.1 1.4.7-.3 2.9.2 7 .8 6.3.4-.4.6-2.2.5-4.1-.1-1.8.2-3.6.8-4 .6-.4 1 .9 1 3.5 0 2.3.4 3.9.9 3.6.5-.3.8-2.2.6-4.1-.2-3 .3-3.8 2.4-5l2.6-1.3-2.8-1.1c-1.5-.6-9.5-2.7-17.7-4.8l-15-3.7-18 5.9-17.9 5.9.3 3.3c.3 4 1.6 5.6 1.6 2 0-1.5.5-2.7 1-2.7 1 0 1.1.5 1.4 4.7.2 3.8 1.6 3.7 1.6-.1 0-2.6.4-3.6 1.3-3.3.6.2 1.2 1.1 1.2 2 0 .8.4 1.9.8 2.3.4.4.7-.2.7-1.4s.5-2.2 1-2.2c1 0 1.4 1.4 1.1 3.7-.1.7.3 1.3.9 1.3.5 0 1-.9 1-2s.6-2 1.4-2c.9 0 1.3.9 1.1 2.5-.1 1.4.2 2.8.6 3.1.5.3.9-.6.9-2 0-1.7.5-2.6 1.6-2.6s1.5.6 1.1 1.9c-.2 1-.1 2.5.4 3.2.6 1 .9.6.9-1.4 0-1.7.5-2.7 1.5-2.7s1.5 1 1.5 2.7c0 1.4.3 2.3.8 1.9.4-.4.7-1.3.7-1.8 0-2.2 2.4-1.8 2.7.4l.5 2.3 1-2.4c1-2.5 2.8-1.4 1.8 1.1-.4 1.1-3.2 1.5-11.3 1.7-5.9.1-12.9.4-15.7.6-22.8 1.8-24.5 1.8-24.6-.1 0-1.1-.2-2.7-.4-3.6-.5-2.8 2.4-3 3.1-.3.3 1.4 1 2.5 1.5 2.5.8 0 .5-3.3-.6-5-.3-.6-.2-1 .4-1 .6 0 1.3 1.1 1.7 2.5.3 1.4 1 2.5 1.5 2.5 1.2 0 1.1-1.1-.5-4.1-.7-1.4-1.2-3.6-1.1-5 .4-4.9-3.3-8.9-8.4-8.9-4.1 0-8.6 7.5-6.2 10.4.6.7.9 1.5.7 1.7-.9.9-1.3 6.9-.5 7.5.5.3.9-.9.9-2.5 0-4.5 1.5-3.8 2.7 1.1l1.1 4.3.1-3.8c.1-3.6 2-5.4 2.2-2 0 1 .2 2.8.3 4 .2 2-.2 2.3-3.3 2.4-2 0-4.4.2-5.3.4-.9.2-4.1.5-7 .7l-5.3.3v-3.4c0-4.3 1.7-5 3.3-1.4 1.1 2.7 1.1 2.7.6-1-.6-4.6.1-4.7 2.1-.5l1.5 3.3-.5-3.5c-.3-1.9-.9-3.6-1.3-3.8-.4-.1-.6-1.7-.4-3.6.3-2.7-.2-3.7-2.7-5.9-3.1-2.6-3.8-2.7-7.9-1.3-3 1-5.1 5.4-4.2 8.8.5 1.5.6 4.3.3 6.2-.3 2.2 0 3.6.6 3.6s1-.3 1-.8c-.1-.4-.1-1.8 0-3.2.1-3.4 2-1.3 2.3 2.8.1 1.7.6 3.2 1.1 3.2.5 0 .7-1.2.5-2.7-.2-1.4.2-2.8.7-3 .6-.2 1.2 1.2 1.3 3.1.3 3.8-.1 4-10.3 5.2-3.3.3-6.3.8-6.7 1.1-.9.5-1-.3-1-4.2 0-3.9.1-4.5 1.2-4.5.5 0 1.2 1.1 1.6 2.5.3 1.4 1 2.5 1.5 2.5 1.1 0 1.1-.3-.1-3.4-.5-1.4-.5-2.8 0-3.1.4-.3 1.1.8 1.5 2.5.4 1.6 1 3 1.5 3s.4-1.5-.2-3.3c-.5-1.7-1.1-4.8-1.1-6.8-.3-6.3-5.3-9.5-11.2-7.3-2.4 1-4.5 6.3-3.5 8.9.5 1.2.5 2.7.1 3.4-.5.7-2.9-2.3-6.5-8-3.1-5-5.6-9.2-5.4-9.3.2-.1 2.4-.7 5.1-1.3 4.4-1 4.7-.9 4.2.8-.5 1.4-.1 1.9 1.4 1.9 2.3 0 2.7-1 1-2.7-1-1 .8-1.5 11.1-2.8.8-.1 3.3-.5 5.5-.8 10.1-1.6 26.8-3.7 28.5-3.7 1.1 0 1.9.5 1.7 1.2-.1.6.7 1.4 1.7 1.6 1.5.3 1.8 0 1.3-1.7-.5-1.9-.1-2.1 3.6-2.2 2.3 0 5-.2 5.9-.4.9-.2 7.5-.6 14.5-1s12.9-.8 13-.9c.1 0 2.2-.1 4.7-.2 3.1-.1 4.6.3 4.6 1.2zm153.3-.9c-.7.2-1.9.2-2.5 0-.7-.3-.2-.5 1.2-.5s1.9.2 1.3.5zm4.4.9c-.3.3-1.2.4-1.9.1-.8-.3-.5-.6.6-.6 1.1-.1 1.7.2 1.3.5zm-237.2 1.2c-.6.5-4.8 1.4-9.5 2.1-4.7.7-13.9 2.3-20.4 3.7-6.6 1.3-12.1 2.2-12.3 2-.4-.4 6.9-2.1 24.2-5.5 16.1-3.2 19.5-3.6 18-2.3zm261 4.2c2.6 4.2.8 9-3.5 9.2-5.6.2-5.9 0-5.4-3.9.6-4.6 1-5 3.4-3.5 1.1.7 2.4 1.2 3 1.2 1.5 0 1.2-2.6-.5-4-.8-.7-1.5-1.7-1.5-2.2 0-1.2 3.1 1 4.5 3.2zm-288.2-2.3c-.7.2-1.9.2-2.5 0-.7-.3-.2-.5 1.2-.5s1.9.2 1.3.5zm-31.8 3.7c-6.6 1.8-14.2 4-17 4.9-2.7 1-4.5 1.3-4 .8 2.1-1.9 26.4-8.9 31-8.9 1.1-.1-3.4 1.4-10 3.2zM223 427c-1.4.4-3.4.8-4.5.8-1.6 0-1.5-.2.5-.8 1.4-.4 3.4-.8 4.5-.8 1.6 0 1.5.2-.5.8zm225.8 1.5c.6.5-3 8.5-3.8 8.5-1.6 0-4-1.2-4-2 0-.4.7-2.4 1.5-4.4 1.3-3.1 1.9-3.6 3.8-3 1.2.3 2.3.8 2.5.9zm-233.3.1c-1.3.5-28.6 7.4-29.3 7.4-2.2 0 2.3-1.5 13.9-4.4 11.3-3 19.1-4.5 15.4-3zm240.5.8c0 .4-7.2 20.1-7.4 20.4-.2.1-.3-2.1-.4-5 0-2.9-.1-6.2-.2-7.3-.1-1.1.5-3.6 1.4-5.6 1.3-3.1 1.9-3.6 4.1-3.2 1.4.3 2.5.6 2.5.7zm6 1.1c0 .2-1.3 3.4-2.9 7.1-3.8 9.3-4.2 10.2-6.1 15.4-1.7 4.8-1.2 4.5-9.3 4.1-1.4-.1-1.8-.8-1.5-2.8.2-1.4.9-2.8 1.6-3.1.7-.2 1.2 0 1.1.5-.3 1.7.1 3.3 1 3.3.4 0 .7-1.2.5-2.8-.4-2.5.1-1.9 1.2 1.7.7 2.1 1.1 1.3 5.5-11.5 2.3-6.5 4.6-12.2 5.2-12.6.9-.5 3.7 0 3.7.7zm-112.6.1c1.3.5 1.4.9.5 2-1.4 1.8-3.3 1.8-4.8.1-1.8-2.3.7-3.5 4.3-2.1zm116 6.1c-1.5 3.2-4.2 9.5-6.2 14-2.3 5.5-3.9 8-4.8 7.6-1.5-.6-1.5-.4 4.4-15.6 4-10.3 4.8-11.7 6.9-11.7h2.3l-2.6 5.7zM211 433c-.8.5-2.4.9-3.5.9-1.6-.1-1.6-.2.5-.9 3.5-1.1 4.8-1.1 3 0zm155.3 2l9.9 2.3-6.4 2.4c-3.5 1.2-6.9 2.3-7.7 2.3-.7 0-3.8-1.4-6.9-3.1l-5.5-3.2 2.4-1.8c1.3-1 2.9-1.7 3.4-1.5.6.2 5.4 1.4 10.8 2.6zm106.1.2c-.8 1.8-2.2 5-3.1 7-.9 2.1-2.5 4-3.6 4.4-1.3.4-1.6.9-.8 1.3 1.8 1.2-2.7 11.1-5 11.1-2.5 0-2.4-.6.7-7.6 7.3-16.8 8.8-19.4 11.1-19.4 2.1 0 2.2.1.7 3.2zm-129.9-1c1.4.6 2.5 1.4 2.5 1.7 0 .4-2.3 2.4-5.1 4.5l-5.1 3.8-8.9-1.8c-4.9-1-8.7-1.9-8.5-2.1.6-.6 20-7.2 21.3-7.3.7 0 2.4.5 3.8 1.2zm136.5-.3c0 .5-1.2 3.2-2.6 6-1.8 3.4-3.3 5.1-4.5 5.1-2.4 0-2.4.1.8-6.5 1.8-3.6 3.3-5.5 4.5-5.5 1 0 1.8.4 1.8.9zm-246.4 8.7c3 4.7 6 9.8 6.7 11.2.6 1.5 1.4 2.9 1.8 3.2.3.3 1.1 1.5 1.8 2.7 1.1 2.1.9 2.3-1.3 2.3-2 0-3.2-1.3-6.5-7.3-2.2-3.9-5.8-10-8-13.3-2.2-3.4-3.7-6.4-3.4-6.8 1.7-1.7 3.8.2 8.9 8zm173.9-6.2c1.3 1.9 1.4 2.8.4 5-1.1 2.3-1.8 2.7-4.8 2.4-2.8-.2-3.8-.8-4.5-3-2-5.6 5.7-9.4 8.9-4.4zm77-1.4c1.1 1.7-3.4 9-5.5 9-2 0-1.9-.2.5-5 2.5-4.9 3.8-6 5-4zm-257.9 7.1c2.5 3.9 4.4 7.3 4.1 7.5-1.5 1.6-5.8-1.3-8.8-5.9-1.8-2.9-3.7-5.4-4.1-5.5-1.6-.7-.8-2.1 1.5-2.5 1.2-.2 2.3-.5 2.5-.6.1 0 2.3 3.1 4.8 7zm69.1-3.5c.9 2.4-.6 6.2-2.7 6.9-6.8 2.2-10.4-6.9-3.7-9.4 2.4-1 5.5.3 6.4 2.5zm130.9-1.1c1.8 2.8 1.3 5.5-1.6 7.2-4.7 3-10.2-3.7-6.4-7.8 2.4-2.7 6-2.4 8 .6zm62.8-1.9c1.3.5 1.3.9-.1 3.9-1.4 3-4.4 5-5.6 3.8-.4-.3 3.4-8.3 4-8.3.1 0 .8.3 1.7.6zM184 437c-.8.5-2.2.9-3 .9-1 0-.8-.3.5-.9 2.7-1.2 4.3-1.2 2.5 0zm9.5 0c-.3.5-1.2 1-1.8 1-.7 0-.6-.4.3-1 1.9-1.2 2.3-1.2 1.5 0zm19.9 1.5c.3.8 1.1 1.5 1.8 1.5 1.4 0 7.3 7.8 6.6 8.6-.3.2-1.8.1-3.4-.2-2-.4-3.7-1.9-5.6-5.1-1.6-2.4-2.8-4.8-2.8-5.4 0-1.5 2.7-1 3.4.6zm279.1 1.5c-1.3 2.5-3.5 4.1-3.5 2.5 0-1.6 2.6-5.5 3.7-5.5s1.1.6-.2 3zm-281.3 3.5c2.2 3.7 2.4 4.4 1 4.2-.9-.1-2.2-.6-2.9-1-1.6-1-4.4-6.7-3.8-7.8 1-1.5 3 .1 5.7 4.6zm60-3.8c.8 1 1.3 2.4 1.2 3-.1.7-.2 1.9-.3 2.6-.2 2-4.2 3.6-6.8 2.6-1.2-.4-2.5-2-2.9-3.4-1.3-5.1 5.4-8.7 8.8-4.8zm82.3 1l4.8 2.6-4.4 1.8c-5.2 2.1-7.1 2.2-12.2.8l-3.8-1 4.3-3.4c2.4-1.9 4.8-3.4 5.4-3.4.6-.1 3.3 1.1 5.9 2.6zm92.6.2c0 .3.2 1.5.4 2.6.8 3.9-4.6 7-8.2 4.7-1.2-.8-1.8-3.1-1.5-6.3.3-2.4 4.2-3.8 7-2.6 1.2.6 2.2 1.3 2.3 1.6zm50.9-1c-1.1 2.2-2.9 3.5-3.6 2.8-.9-.8 2-4.7 3.4-4.7.9 0 1 .5.2 1.9zM205 443c1.9 3.7 1.9 4 .3 4-1 0-2.8-1.6-4-3.4-2-3.2-2.1-3.5-.5-3.9.9-.3 1.8-.5 1.9-.6.2 0 1.2 1.7 2.3 3.9zm-23-2c-.8.5-1.9 1-2.5 1-.5 0-.3-.5.5-1s2-1 2.5-1c.6 0 .3.5-.5 1zm69.2.2c.9.7 1.8 2 1.9 2.8.4 1.8-1 6-1.9 6.1-.4 0-1.5.2-2.4.4-2.4.4-5.8-2.3-5.8-4.7 0-2.6 2.7-5.8 5-5.8.9 0 2.3.6 3.2 1.2zm-51.4 2.5c1.4 2.2 1.3 2.3-1 2.3-1.7 0-2.9-.8-3.7-2.6-1-2.3-.9-2.5 1-2.2 1.2.2 2.8 1.3 3.7 2.5zm-6.4-.1c.3.8.2 1.2-.4.9-.6-.3-1-1-1-1.6 0-1.4.7-1.1 1.4.7zm166.4 5.6c.3 2.8-1.5 3.8-5 3-1.9-.5-2.4-3.7-.8-4.7.6-.3 1 .3 1 1.4 0 1.1.5 2.3 1 2.6.6.4 1-.7 1-2.5 0-3.9 2.3-3.6 2.8.2zm128.5-1.5c-.8 2.4-2.4 4.3-3.4 4.3-.5 0-.3-1.4.6-3 1.7-3.2 3.9-4.2 2.8-1.3zm3.2 2.4c-.9 1.6-2 2.7-2.5 2.4-.6-.4-.4-1.8.5-3.6.9-1.6 2-2.7 2.5-2.4.6.4.4 1.8-.5 3.6zM478 448c0 .5-.9 1-2 1s-2-.5-2-1c0-.6.9-1 2-1s2 .4 2 1zm6-.3c0 .5-.4 1.4-.8 2.1-1.1 1.7-4.2.4-3.5-1.4.5-1.4 4.3-2 4.3-.7zm-285 6.5c3.4 7 3.3 6.8 2 6.8-.5 0-1-.5-1-1.1 0-.9-3.4-8.9-4.7-11.2-.2-.4-.2-.7.1-.7.4 0 2 2.8 3.6 6.2zm5.8-.6c2.7 5.4 2.7 6.4.4 6.4-1.2 0-2.7-1.9-4.5-5.5-1.5-3.1-2.7-5.7-2.7-5.9 0-.2 1.1-.1 2.3.1 1.6.3 3.1 1.9 4.5 4.9zm4.3-2.9c3.3 4.2 3.8 5.9 1.9 7-1.5 1-2 .5-3.9-2.9-1.1-2.2-2.1-4.4-2.1-4.9 0-1.5 2.6-1 4.1.8zm142.9-.2c0 .8-.4 1.5-1 1.5-.5 0-1-.7-1-1.5s.5-1.5 1-1.5c.6 0 1 .7 1 1.5zm118.4 1.9c-1.4 4.6-3.5 7.6-5.4 7.6-1.8 0-1.8-.2-.3-3.8 2.6-6.2 3.3-7.2 4.8-6.5 1.1.3 1.3 1.2.9 2.7zm-254.4-.9c1.3 1.6.7 4.5-.9 4.5-.6 0-1.7-1.4-2.6-3-1.5-2.8-1.4-3 .4-3 1 0 2.4.7 3.1 1.5zm5.3-.6c.5.1.5.5.2 1.1-.9 1.5-3.2 1.2-3.8-.4-.4-.9 0-1.3 1.1-1.1.9.2 2.1.4 2.5.4zm127.1 0c.3.5 0 1.1-.8 1.4-1.5.6-2.6-.1-2.6-1.5 0-1.1 2.7-1 3.4.1zM235.3 458l2.5 4.5-5.7 1.1c-6.2 1.3-7.1 1.1-7.1-1.6 0-1-.7-2-1.5-2.4-2.9-1.1-1.1-4.6 2.4-4.6.4 0 1.8 1.9 3.1 4.2 1.3 2.3 2.5 3.7 2.8 3 .2-.6-.6-2.5-1.7-4.1-2.4-3.4-2.6-4.2-.9-5.9 1.5-1.5 2.7-.4 6.1 5.8zm8.8-2.5l-.8 3-.8-2.7c-.8-2.9.2-5.5 1.6-4.1.5.5.5 2.2 0 3.8zm196.5-2c.1.8-.4 1.9-1.2 2.6-1.2 1-1.4.8-1-1.2.3-1.3.5-2.8.5-3.3.1-1.3 1.4.2 1.7 1.9zm35.4-.9c0 .2-.8 2.2-1.7 4.3-1.1 2.6-2.3 3.9-3.5 3.8-1.3-.1-1.6-.7-1.2-2.2 1.5-4.6 3.4-7.4 4.9-6.9.8.4 1.5.8 1.5 1zM248.2 457c.3 3.3 0 4-1.4 4-.9 0-2-.5-2.3-1-.3-.6-.1-1 .4-1 .6 0 1.1-1.4 1.1-3 0-4.4 1.7-3.6 2.2 1zm231.1-3.4c2.4.9-.8 8.3-3.3 7.7-1.7-.4-1.7-.7-.1-4.4.9-2.1 1.7-3.9 1.8-3.9.1 0 .8.3 1.6.6zm4.7 2.6c0 3.3-1.4 5.8-3.1 5.8-1.8 0-1.8-.2-.2-3.5 1.7-3.5 3.3-4.6 3.3-2.3zm-86 1.2c11.3.6 16 1 27 2.1 1.9.2 7.7.6 12.8 1 5 .4 9.2 1.1 9.2 1.6s-1.2.6-2.7.4c-7.3-1.2-14.5-1.2-15.8.1-1.7 1.7-8.5 1.5-9.2-.3-.6-1.5-4.3-1.8-4.3-.4 0 .6-9.7.9-23.2.8-21.3 0-40.5.4-81 1.9-8 .3-15.7.7-17 .9-1.2.2-5 .6-8.3.9-6.3.5-12.3 1.3-16.5 2.2-1.9.3-2.2.2-1-.6.8-.5 2.5-1 3.8-1 1.2 0 2.2-.5 2.2-1.1 0-1.1-6.5-.9-14 .5-1.4.3-6.8 1.2-12 2.1-5.2.9-12.6 2.3-16.5 3.1-3.8.9-8.1 1.8-9.5 2-4.4.9-17.9 4.4-20.5 5.4-1.5.6-2.5.6-2.5 0 0-1.2 4-4.9 5.9-5.4 6.7-1.9 40.6-8.2 54.6-10.1 18.2-2.5 24.1-3.2 35.5-4 4.7-.4 9.6-.9 11-1.1 1.4-.2 9.3-.7 17.5-1 8.3-.3 15.1-.7 15.2-.8.5-.5 48 .2 59.3.8zm89.2 2.1c-.4 2.5-1.9 4.2-2.8 3.3-.7-.8 1.7-6.8 2.6-6.3.4.2.5 1.6.2 3zm-265.3 2.1c1.2 1.9 2.1 3.6 2.1 3.7 0 .2-1.1.4-2.5.5-3.4.3-6.1-4.6-3.6-6.5.9-.7 1.7-1.3 1.8-1.3 0 0 1 1.6 2.2 3.6zm-5.9 1.3c1.4 2.8 1.3 3.8-.8 4.3-2.6.7-4.8-2.8-3.1-4.8 1.6-1.9 2.6-1.8 3.9.5zm246.4 1.2c.9.8-3.2.4-10.9-1.2-2.8-.5-1.9-.6 3-.2 3.9.3 7.4.9 7.9 1.4zm-252 1.6c.4.9.1 2-.6 2.5-2.4 1.4-3.8.8-3.8-1.7 0-2.9 3.4-3.6 4.4-.8zm228.9-1c-.7.2-1.9.2-2.5 0-.7-.3-.2-.5 1.2-.5s1.9.2 1.3.5zm11.9 1.2c.4.3-1.4.4-4 .3-2.6-.2-5-.7-5.4-1.1-.4-.3 1.4-.4 4-.3 2.6.2 5 .7 5.4 1.1zm22.7-.3c.9.8-6.5.2-8.4-.7-1.3-.6-.4-.7 3-.3 2.8.4 5.2.8 5.4 1zM205 468.2c0 .5-.4.8-1 .8-.5 0-1-1-1-2.3 0-1.8.2-1.9 1-.7.5.8 1 1.8 1 2.2zm224-1.8c2.5.2 7.3.7 10.8 1.1 3.5.3 7.1.8 8 1 .9.1 4 .6 6.7.9 8 1 11.9 1.6 14.5 2.1 1.4.3 3.9.8 5.5 1.1 1.7.2 7.5 1.6 12.9 3 9.3 2.3 12.2 2.5 10 .5-1.1-1-20-5.7-26.7-6.7-2.6-.3-4.6-.9-4.3-1.1.7-.8 14.3 1.5 25.6 4.2 10.6 2.6 10.1 2.3 8.8 5-1.5 3.4-3.7 3.8-10.5 2.1-7.5-2-29.6-6.2-39.8-7.6-4.4-.6-9.1-1.3-10.5-1.5-3-.5-9.1-1.1-18-2-3.6-.3-8.3-.8-10.5-1-2.2-.2-13.7-.7-25.5-1.1-11.8-.3-21.7-.9-22-1.1-.6-.6 58.4.4 65 1.1zm58.6 1.6c5.9 1.1 10.9 2 11.1 2 .2 0 .3.4.3.9s-3.5 0-7.7-.9c-4.3-1-9.7-2.1-12-2.5-2.4-.4-4.3-1.1-4.3-1.6 0-.6.4-.8.9-.4.6.3 5.8 1.4 11.7 2.5zm-166.2-.8c-.2.4-1.2.6-2.2.6-3.4-.2-25.2 1.5-35 2.6-2.6.3-6.7.8-9.2 1.1-10.8 1.2-40.2 5.5-41 6-.3.2-2.6.6-5 1-5.1.8-5.2-.1-.2-1 1.8-.3 6.3-1.2 10-1.9 3.7-.8 8.7-1.7 11.2-2 2.5-.3 5.4-.8 6.6-1 1.2-.2 4.5-.7 7.5-1.1 3-.3 6.1-.8 6.9-1 .8-.2 4.5-.7 8.2-1 3.7-.3 7.7-.8 9-1 1.3-.3 7.5-.8 13.8-1.1 6.3-.3 11.6-.7 11.7-.8.6-.5 8 0 7.7.6zm140.1-.3c2.6.6 3.1.9 1.5.9-1.4.1-4.3-.3-6.5-.7-2.6-.6-3.1-.9-1.5-.9 1.4-.1 4.3.3 6.5.7zm-201.2 2.8c-.7.2-1.9.2-2.5 0-.7-.3-.2-.5 1.2-.5s1.9.2 1.3.5zm-7 1c-.7.2-1.9.2-2.5 0-.7-.3-.2-.5 1.2-.5s1.9.2 1.3.5zm-29.6 8.9c-.3.3-1.2.4-1.9.1-.8-.3-.5-.6.6-.6 1.1-.1 1.7.2 1.3.5z"/><path d="M334.7 229.6c-.9 1 .2 2.4 1.9 2.4.8 0 1.4-.7 1.4-1.5 0-1.5-2.1-2.1-3.3-.9zM344.2 236.2c.3.7 1.3 1.5 2.2 1.6 1.2.3 1.7-.1 1.4-1-.3-.7-1.3-1.5-2.2-1.6-1.2-.3-1.7.1-1.4 1zM334.3 245.8c-.8.5-.9 1.3-.3 2.2.7 1.2 1.2 1.2 2.2.2 1.4-1.4-.1-3.5-1.9-2.4zM351.3 251.2c.2.7 1 1.3 1.7 1.3s1.5-.6 1.8-1.3c.2-.7-.5-1.2-1.8-1.2s-2 .5-1.7 1.2zM322.2 260.2c.5 1.5 2.8 1.8 2.9.3 0-.6-.7-1.2-1.7-1.3-1-.3-1.5.1-1.2 1zM341.7 266.7c-1.3 1.2-.7 2.3 1.1 2.3 1 0 1.9-.7 1.9-1.5 0-1.5-1.8-2-3-.8zM360.7 269.6c-.9 1 .2 2.4 1.9 2.4.8 0 1.4-.7 1.4-1.5 0-1.5-2.1-2.1-3.3-.9zM343.4 274.4c-4.3 1.9-6.4 5.3-6.4 10.3 0 7.9 7.7 13.4 15.3 10.8 5.8-2 7.2-4.1 7.2-10.7 0-4.9-.4-6.2-2.6-8.4-3.2-3.1-9.1-4-13.5-2zm11.3 5.3c2.2 3.3 2.4 4.8 1.2 8.2-1 2.9-4.5 5.1-7.9 5.1-3.5 0-7.1-4.1-7.2-8.4-.2-4.9 2.7-7.6 8.3-7.6 3.1 0 4.2.5 5.6 2.7zM305.4 275.2c-.4.5-.1 1.4.7 1.8 1.4.9 2.9.4 2.9-1 0-1.3-2.9-2-3.6-.8zM378.3 278.2c.2.7 1 1.3 1.7 1.3s1.5-.6 1.8-1.3c.2-.7-.5-1.2-1.8-1.2s-2 .5-1.7 1.2zM326.2 279.2c.5 1.5 2.8 1.8 2.9.3 0-.6-.7-1.2-1.7-1.3-1-.3-1.5.1-1.2 1zM287.5 288c-.7 1.2.2 3 1.6 3 1.2 0 1.2-2.7 0-3.5-.5-.3-1.2-.1-1.6.5zM318.4 288.4c-.8 2.2.3 3.3 1.8 1.8.9-.9.9-1.5 0-2.4-.9-.9-1.3-.7-1.8.6zM332.5 288c-.8 1.3.4 3.2 1.6 2.5 1.2-.8 1.2-3.5 0-3.5-.6 0-1.3.4-1.6 1zM364 288.5c0 1 .7 1.5 1.8 1.3 2.1-.4 1.9-2.2-.2-2.6-1-.2-1.6.3-1.6 1.3zM387.6 290.7c-1.2 1.2-.6 3.3.9 3.3.8 0 1.5-.6 1.5-1.4 0-1.7-1.4-2.8-2.4-1.9zM407 293c0 1.3.5 2 1.3 1.7.6-.2 1.2-1 1.2-1.7s-.6-1.5-1.2-1.8c-.8-.2-1.3.5-1.3 1.8zM340.5 297c-.9 1.5.3 3 2 2.4.7-.3 1.1-1.2.8-2-.6-1.6-1.9-1.8-2.8-.4zM307.6 298.7c-1.2 1.2-.6 3.3.9 3.3.8 0 1.5-.6 1.5-1.4 0-1.7-1.4-2.8-2.4-1.9zM375.3 302.2c.2.7 1 1.3 1.7 1.3s1.5-.6 1.8-1.3c.2-.7-.5-1.2-1.8-1.2s-2 .5-1.7 1.2zM325.4 306.1c-.3.6 0 1.5.7 2 1.4.8 3.2-.9 2.3-2.3-.7-1.1-2.2-1-3 .3zM361.2 306.4c.1 1 .8 1.7 1.3 1.7 1.5-.1 1.2-2.4-.3-2.9-.9-.3-1.3.2-1 1.2zM296.7 310.6c-.9 1 .2 2.4 1.9 2.4.8 0 1.4-.7 1.4-1.5 0-1.5-2.1-2.1-3.3-.9zM394 317c-1.2.7-1.2 1.2-.2 2.2.9.9 1.5.9 2.4 0 1.6-1.6-.2-3.4-2.2-2.2zM287.5 323c-1.1 1.7.5 3.2 2.1 1.9.8-.6 1.4-1.5 1.4-2 0-1.2-2.7-1.1-3.5.1zM333.6 325.9c-.3.5.1 1.4.8 2 1.6 1.3 3.2-.2 2.1-1.9-.8-1.2-2.2-1.3-2.9-.1zM328 344c0 1.3.5 1.8 1.5 1.4.8-.4 1.5-1.2 1.5-2s-.7-1.4-1.5-1.4-1.5.9-1.5 2zM312 357.5c0 .8.7 1.5 1.5 1.5s1.5-.7 1.5-1.5-.7-1.5-1.5-1.5-1.5.7-1.5 1.5zM296.5 363.1c-1 1.5.1 2.3 2 1.5.9-.3 1.3-1 1-1.6-.8-1.3-2.2-1.3-3 .1zM261.3 363.8c-.8.5-.9 1.3-.3 2.2.7 1.2 1.2 1.2 2.2.2 1.4-1.4-.1-3.5-1.9-2.4zM279.4 365.1c-.8 1.4 1.1 3.3 2.5 2.5.6-.4 1.1-1.1 1.1-1.6 0-1.3-2.9-2-3.6-.9zM489 298.4c0 .8.4 1.7.9 2 1.1.7 3.3-1.8 2.4-2.7-1.2-1.2-3.3-.7-3.3.7zM192.1 289.9c-2.4 1.5-.2 2.9 3.8 2.4 5.3-.7 8.3 2.2 7.7 7.4-.7 6.3-4.8 8.2-12.8 5.7-2.7-.8-2.2 1.3.7 3.2 3.5 2.3 10.8 1.4 14.1-1.7 4.7-4.4 2.3-14.7-3.9-16.9-3.6-1.2-7.7-1.3-9.6-.1z"/><path d="M188.6 300.5c-.6 1.7.9 2.9 2.4 2 1.4-.9 1.2-2.2-.4-2.8-.8-.3-1.7.1-2 .8zM575 316.4c0 1.9 2.7 2.8 3.3 1.1.7-1.5-.1-2.5-2-2.5-.7 0-1.3.6-1.3 1.4zM600.2 322.2c.5 1.5 2.8 1.8 2.9.3 0-.6-.7-1.2-1.7-1.3-1-.3-1.5.1-1.2 1zM557 331.5c0 .8.7 1.5 1.5 1.5s1.5-.7 1.5-1.5-.7-1.5-1.5-1.5-1.5.7-1.5 1.5zM594.5 336.9c-.3.5-.1 1.2.5 1.6 1.2.7 3-.2 3-1.6 0-1.2-2.7-1.2-3.5 0zM113.6 318.9c-.7 1.1 1.8 3.3 2.7 2.4.4-.3.7-1.2.7-2 0-1.5-2.6-1.8-3.4-.4zM83.4 332.1c-.3.6-.2 1.5.2 1.9 1.2 1.2 3.8-.5 3-1.9-.9-1.4-2.3-1.4-3.2 0zM101.3 336.2c.2.7 1 1.3 1.7 1.3s1.5-.6 1.8-1.3c.2-.7-.5-1.2-1.8-1.2s-2 .5-1.7 1.2zM118.2 337.6c.4 2.1 2.2 2.3 2.6.1.2-1-.3-1.7-1.3-1.7s-1.5.6-1.3 1.6zM135.6 339.5c-.6 1.7.9 2.9 2.4 2 1.4-.9 1.2-2.2-.4-2.8-.8-.3-1.7.1-2 .8zM67.2 344.2c.3.7 1.3 1.5 2.2 1.6 1.2.3 1.7-.1 1.4-1-.3-.7-1.3-1.5-2.2-1.6-1.2-.3-1.7.1-1.4 1zM83 349c.8.6 2.4 1.5 3.5 2.1 1.6.8 1.5.6-.4-1-1.3-1.2-2.8-2.1-3.5-2.1-.6 0-.4.5.4 1zM107 353.5c0 .8.7 1.5 1.5 1.5s1.5-.7 1.5-1.5-.7-1.5-1.5-1.5-1.5.7-1.5 1.5zM470.5 338c-.8 1.3.4 3.2 1.6 2.5 1.2-.8 1.2-3.5 0-3.5-.6 0-1.3.4-1.6 1zM456.7 350.6c-1.3 1.3-.7 2.4 1.4 2.4 1.1 0 1.9-.5 1.7-1.2-.5-1.4-2.2-2.1-3.1-1.2zM438.1 360.4c-.9 1.1-.8 1.5.5 2 2.2.8 2.4.8 2.4-.8 0-2.1-1.6-2.8-2.9-1.2zM421 364.5c0 .8.7 1.5 1.5 1.5s1.5-.7 1.5-1.5-.7-1.5-1.5-1.5-1.5.7-1.5 1.5zM402 365.5c0 1 .7 1.5 1.8 1.3 2.1-.4 1.9-2.2-.2-2.6-1-.2-1.6.3-1.6 1.3zM200.4 330.4c-.8 2.2.3 3.3 1.8 1.8.9-.9.9-1.5 0-2.4-.9-.9-1.3-.7-1.8.6zM195 350.5c0 1 .7 1.5 1.8 1.3 2.1-.4 1.9-2.2-.2-2.6-1-.2-1.6.3-1.6 1.3zM184.2 367.6c.4 2.1 2.2 2.3 2.6.1.2-1-.3-1.7-1.3-1.7s-1.5.6-1.3 1.6zM169.2 377.4c.1 1 .8 1.7 1.3 1.7 1.5-.1 1.2-2.4-.3-2.9-.9-.3-1.3.2-1 1.2zM145 382.5c0 .8.7 1.5 1.5 1.5s1.5-.7 1.5-1.5-.7-1.5-1.5-1.5-1.5.7-1.5 1.5zM626 328c-1.2.7-1.2 1.2-.2 2.2 1.4 1.4 3.5-.1 2.4-1.9-.5-.8-1.3-.9-2.2-.3zM356.2 359.6c.4 2.1 2.2 2.3 2.6.1.2-1-.3-1.7-1.3-1.7s-1.5.6-1.3 1.6zM334.2 369.2c.5 1.5 2.8 1.8 2.9.3 0-.6-.7-1.2-1.7-1.3-1-.3-1.5.1-1.2 1zM372.6 369.9c-.3.5.1 1.4.8 2 1.6 1.3 3.2-.2 2.1-1.9-.8-1.2-2.2-1.3-2.9-.1zM229.7 370.7c-1.3 1.2-.7 2.3 1.3 2.3 1.1 0 2-.7 2-1.5 0-1.5-2.1-2.1-3.3-.8zM203.7 376.6c-1.3 1.3-.7 2.4 1.4 2.4 1.1 0 1.9-.5 1.7-1.2-.5-1.4-2.2-2.1-3.1-1.2zM320.4 378.1c-.3.6 0 1.5.7 2 1.4.8 3.2-.9 2.3-2.3-.7-1.1-2.2-1-3 .3zM301.2 379.6c.4 2.1 2.2 2.3 2.6.1.2-1-.3-1.7-1.3-1.7s-1.5.6-1.3 1.6zM278 382c-1.3.9-1.3 1.1 0 2 1.8 1.1 3.9-.5 2.4-2-.6-.6-1.5-.6-2.4 0zM358.7 381.6c-.9 1 .2 2.4 1.9 2.4.8 0 1.4-.7 1.4-1.5 0-1.5-2.1-2.1-3.3-.9zM389.6 385.5c-.4 1 .1 1.5 1.4 1.5 1.1 0 2-.7 2-1.5s-.6-1.5-1.4-1.5c-.8 0-1.6.7-2 1.5zM442 387c-1 .6-1.1 1.3-.5 1.9.6.6 1.6.7 2.5.1 1-.6 1.1-1.3.5-1.9-.6-.6-1.6-.7-2.5-.1zM415 388.5c0 .8.7 1.5 1.5 1.5s1.5-.7 1.5-1.5-.7-1.5-1.5-1.5-1.5.7-1.5 1.5zM249.4 389.1c-.8 1.4 1.8 3.1 3 1.9.9-.9 0-3-1.4-3-.5 0-1.2.5-1.6 1.1zM219 390.5c0 1 .7 1.5 1.8 1.3 2.1-.4 1.9-2.2-.2-2.6-1-.2-1.6.3-1.6 1.3zM319.6 395.5c-.6 1.7.9 2.9 2.4 2 1.4-.9 1.2-2.2-.4-2.8-.8-.3-1.7.1-2 .8zM344 395.5c0 .8.7 1.5 1.5 1.5s1.5-.7 1.5-1.5-.7-1.5-1.5-1.5-1.5.7-1.5 1.5zM374.3 395.2c.2.7 1 1.3 1.7 1.3s1.5-.6 1.8-1.3c.2-.7-.5-1.2-1.8-1.2s-2 .5-1.7 1.2zM294.4 396.1c-.8 1.4 1.1 3.3 2.5 2.5 1.1-.7.4-3.6-.9-3.6-.5 0-1.2.5-1.6 1.1zM400 398.5c0 .8.7 1.5 1.5 1.5s1.5-.7 1.5-1.5-.7-1.5-1.5-1.5-1.5.7-1.5 1.5zM266.6 399.8c-.9 1.4.9 3.1 2.3 2.3.7-.5 1-1.4.7-2-.8-1.3-2.3-1.4-3-.3zM427.5 400c-.8 1.3.4 3.2 1.6 2.5 1.2-.8 1.2-3.5 0-3.5-.6 0-1.3.4-1.6 1zM237 402.5c0 .8.7 1.5 1.5 1.5s1.5-.7 1.5-1.5-.7-1.5-1.5-1.5-1.5.7-1.5 1.5zM213.7 405.6c-.9 1 .2 2.4 1.9 2.4.8 0 1.4-.7 1.4-1.5 0-1.5-2.1-2.1-3.3-.9zM36.9 346.9c2.1 3.9 13.1 11.2 16.8 11 1 0-.5-1.2-3.4-2.5-2.8-1.4-6.9-4.3-9.1-6.5-4.4-4.3-5.8-4.9-4.3-2zM30.6 348.2c.9 2.2 9.8 8.8 11.8 8.8 1.4 0 .6-.9-2.5-2.8-2.4-1.6-5.3-3.9-6.3-5-2.1-2.4-3.8-2.9-3-1zM606.7 357.6c-.9 1 .2 2.4 1.9 2.4.8 0 1.4-.7 1.4-1.5 0-1.5-2.1-2.1-3.3-.9zM507.4 365.1c-.3.6 0 1.5.7 2 1.4.8 3.2-.9 2.3-2.3-.7-1.1-2.2-1-3 .3zM525.5 372c-.8 1.3.4 3.2 1.6 2.5 1.2-.8 1.2-3.5 0-3.5-.6 0-1.3.4-1.6 1zM80.3 367.2c.2.7 1 1.3 1.7 1.3s1.5-.6 1.8-1.3c.2-.7-.5-1.2-1.8-1.2s-2 .5-1.7 1.2zM370 427c0 1.3.5 1.8 1.5 1.4.8-.4 1.5-1.2 1.5-2s-.7-1.4-1.5-1.4-1.5.9-1.5 2zM395 426.5c0 .8.7 1.5 1.5 1.5s1.5-.7 1.5-1.5-.7-1.5-1.5-1.5-1.5.7-1.5 1.5zM313.4 427.1c-.8 1.4 1.8 3.1 3 1.9.9-.9 0-3-1.4-3-.5 0-1.2.5-1.6 1.1zM265.6 428.9c-.3.5.1 1.4.8 2 1.6 1.3 3.2-.2 2.1-1.9-.8-1.2-2.2-1.3-2.9-.1zM422.7 428.6c-.9 1 .2 2.4 1.9 2.4.8 0 1.4-.7 1.4-1.5 0-1.5-2.1-2.1-3.3-.9zM386.6 435.8c-.2.4-.1 1.4.4 2.2.7 1.1 1.2 1.2 2.1.3.6-.6.8-1.6.5-2.2-.8-1.3-2.3-1.4-3-.3zM358.6 435.7c-1.2 1.2-.6 3.3.9 3.3.8 0 1.5-.6 1.5-1.4 0-1.7-1.4-2.8-2.4-1.9zM333.7 436.6c-.9 1 .2 2.4 1.9 2.4.8 0 1.4-.7 1.4-1.5 0-1.5-2.1-2.1-3.3-.9zM401 439.5c0 .8.7 1.5 1.5 1.5s1.5-.7 1.5-1.5-.7-1.5-1.5-1.5-1.5.7-1.5 1.5zM289.6 439.7c-1.2 1.2-.6 3.3.9 3.3.8 0 1.5-.6 1.5-1.4 0-1.7-1.4-2.8-2.4-1.9zM420 440.5c0 .8.7 1.5 1.5 1.5s1.5-.7 1.5-1.5-.7-1.5-1.5-1.5-1.5.7-1.5 1.5zM265.7 442.6c-.9 1 .2 2.4 1.9 2.4.8 0 1.4-.7 1.4-1.5 0-1.5-2.1-2.1-3.3-.9zM440 444.6c0 .9.7 1.4 1.7 1.2 2.5-.5 2.8-2.8.4-2.8-1.2 0-2.1.6-2.1 1.6zM246.7 444.6c-1.3 1.3-.7 2.4 1.4 2.4 1.1 0 1.9-.5 1.7-1.2-.5-1.4-2.2-2.1-3.1-1.2zM327.3 458.8c-.8.5-.9 1.3-.3 2.2.7 1.2 1.2 1.2 2.2.2 1.4-1.4-.1-3.5-1.9-2.4zM359.6 458.7c-1.2 1.2-.6 3.3.9 3.3.8 0 1.5-.6 1.5-1.4 0-1.7-1.4-2.8-2.4-1.9zM387.4 459.4c-.8 2.2.3 3.3 1.8 1.8.9-.9.9-1.5 0-2.4-.9-.9-1.3-.7-1.8.6zM299.5 461c-.9 1.5.3 3 2 2.4.7-.3 1.1-1.2.8-2-.6-1.6-1.9-1.8-2.8-.4z"/></svg>